<?xml version="1.0" encoding="utf-8"?>
<svg viewBox="0 0 116 32" style="enable-background:new 0 0 116 32;" xmlns="http://www.w3.org/2000/svg">
  <defs>
    <style type="text/css">
	.st0{fill:#201D2D;}
	.st1{fill:#FD5631;}
	.st2{opacity:0.55;fill:#BE1E2D;enable-background:new    ;}
	.st3{fill:#FFFFFF;}
</style>
  </defs>
  <path class="st1" d="M16,32c8.8,0,16-7.2,16-16S24.8,0,16,0S0,7.2,0,16S7.2,32,16,32z"/>
  <path class="st2" d="M31.7,19.3L22,9.6c-3.2-3.2-8.3-3.2-11.5,0c0,0,0,0,0,0l0,0c-3.2,3.2-3.2,8.3,0,11.5c0,0,0,0,0,0l10.2,10.2 C26.2,29.6,30.5,25,31.7,19.3L31.7,19.3z"/>
  <path class="st3" d="M26.4,22.2L23.2,19c0.6-1.1,1-2.5,1-3.8c0-4.5-3.6-8.1-8.1-8.1S8,10.7,8,15.2c0,4.5,3.6,8.1,8.1,8.1 c0,0,0,0,0.1,0c1.3,0,2.7-0.4,3.8-1l3.2,3.2c1,1,2.4,1,3.3,0C27.3,24.6,27.3,23.2,26.4,22.2L26.4,22.2z M16.1,21.4 c-3.4,0-6.2-2.8-6.2-6.2S12.7,9,16.1,9s6.2,2.8,6.2,6.2S19.5,21.4,16.1,21.4z"/>
  <path d="M 41.869 22.064 Q 41.869 21.206 41.902 18.104 Q 41.935 15.002 41.902 13.011 Q 41.869 11.02 41.715 8.952 Q 41.715 8.82 41.737 8.688 Q 41.715 8.6 41.715 8.534 Q 41.715 8.072 42.023 7.742 Q 42.331 7.412 42.793 7.412 Q 48.909 7.302 51.747 7.412 Q 52.209 7.434 52.517 7.764 Q 52.825 8.094 52.803 8.556 Q 52.781 9.018 52.451 9.326 Q 52.121 9.634 51.659 9.612 Q 48.887 9.502 43.959 9.59 Q 44.091 11.658 44.113 14.144 Q 45.565 14.144 50.647 14.078 Q 51.109 14.078 51.439 14.397 Q 51.769 14.716 51.769 15.167 Q 51.769 15.618 51.45 15.948 Q 51.131 16.278 50.691 16.278 Q 45.587 16.344 44.113 16.344 Q 44.113 17.07 44.091 19.039 Q 44.069 21.008 44.069 22.064 Q 44.069 22.526 43.75 22.845 Q 43.431 23.164 42.969 23.164 Q 42.507 23.164 42.188 22.845 Q 41.869 22.526 41.869 22.064 Z" style="fill: rgb(32, 29, 45); white-space: pre;"/>
  <path d="M 59.719 22.768 Q 58.927 23.076 57.926 23.12 Q 56.925 23.164 56.067 22.889 Q 55.209 22.614 54.549 22.042 Q 53.405 21.096 53.075 19.688 Q 52.745 18.28 53.053 17.158 Q 53.361 16.036 53.988 14.969 Q 54.615 13.902 55.352 13.165 Q 56.089 12.428 57.057 11.922 Q 58.025 11.416 59.081 11.427 Q 60.137 11.438 61.303 12.01 Q 61.479 12.098 61.688 12.274 Q 61.897 12.45 62.051 12.582 L 62.337 12.868 Q 62.469 13 62.469 13.022 Q 62.821 13.33 62.843 13.814 Q 63.129 15.134 63.217 16.586 Q 63.305 18.038 63.272 19.314 Q 63.239 20.59 63.305 22.02 Q 63.327 22.46 63.019 22.79 Q 62.711 23.12 62.249 23.142 Q 61.787 23.164 61.457 22.856 Q 61.127 22.548 61.105 22.108 L 61.105 21.778 Q 60.445 22.46 59.719 22.768 Z M 58.729 20.788 Q 59.059 20.7 59.257 20.612 Q 59.455 20.524 59.752 20.348 Q 60.049 20.172 60.379 19.908 Q 60.709 19.644 60.973 19.248 Q 61.017 19.204 61.083 19.16 Q 61.083 16.19 60.709 14.386 Q 60.643 14.298 60.566 14.221 Q 60.489 14.144 60.456 14.1 Q 60.423 14.056 60.368 14.023 Q 60.313 13.99 60.247 13.946 Q 59.191 13.374 58.025 13.913 Q 56.859 14.452 55.979 15.926 Q 55.099 17.422 55.11 18.533 Q 55.121 19.644 55.957 20.37 Q 56.463 20.788 57.211 20.898 Q 57.959 21.008 58.729 20.788 Z" style="fill: rgb(32, 29, 45); white-space: pre;"/>
  <path d="M 79.41 22.152 Q 79.388 21.756 79.355 21.415 Q 79.322 21.074 79.311 20.909 Q 79.3 20.744 79.289 20.623 Q 79.278 20.502 79.278 20.348 L 79.278 19.094 Q 79.278 18.742 79.311 17.851 Q 79.344 16.96 79.333 16.344 Q 79.322 15.728 79.212 15.178 Q 79.08 14.408 78.75 14.067 Q 78.42 13.726 77.738 13.726 Q 76.22 13.748 74.702 15.574 Q 74.768 16.234 74.768 18.126 Q 74.768 19.512 74.834 21.998 Q 74.856 22.438 74.537 22.768 Q 74.218 23.098 73.767 23.12 Q 73.316 23.142 72.986 22.823 Q 72.656 22.504 72.634 22.042 Q 72.568 19.556 72.568 18.126 L 72.568 17.026 Q 72.568 16.916 72.557 16.564 Q 72.546 16.212 72.535 16.047 Q 72.524 15.882 72.491 15.607 Q 72.458 15.332 72.425 15.123 Q 72.392 14.914 72.326 14.716 Q 72.15 14.1 71.842 13.858 Q 71.512 13.594 70.852 13.66 Q 70.126 13.726 69.598 14.056 Q 69.092 14.386 68.564 15.112 Q 68.454 15.244 68.322 15.354 Q 68.41 19.754 68.322 22.064 Q 68.3 22.526 67.97 22.834 Q 67.64 23.142 67.178 23.12 Q 66.716 23.098 66.408 22.768 Q 66.1 22.438 66.122 21.976 Q 66.166 19.534 66.166 18.841 Q 66.166 18.148 66.111 15.651 Q 66.056 13.154 66.056 12.45 Q 66.056 12.12 66.375 11.79 Q 66.694 11.46 67.134 11.46 Q 67.574 11.46 67.926 11.735 Q 68.278 12.01 68.256 12.758 Q 69.246 11.592 70.676 11.46 Q 72.194 11.328 73.206 12.142 Q 73.734 12.56 74.152 13.308 Q 75.516 11.592 77.738 11.46 Q 79.366 11.438 80.356 12.472 Q 81.126 13.374 81.39 14.782 Q 81.5 15.442 81.522 16.223 Q 81.544 17.004 81.511 17.983 Q 81.478 18.962 81.478 19.094 L 81.478 20.304 Q 81.478 20.414 81.489 20.524 Q 81.5 20.634 81.511 20.777 Q 81.522 20.92 81.544 21.25 Q 81.566 21.58 81.61 21.976 Q 81.632 22.438 81.335 22.779 Q 81.038 23.12 80.587 23.153 Q 80.136 23.186 79.795 22.889 Q 79.454 22.592 79.41 22.152 Z" style="fill: rgb(32, 29, 45); white-space: pre;"/>
  <path d="M 87.911 23.054 Q 87.779 23.01 87.372 22.922 Q 86.965 22.834 86.668 22.724 Q 86.371 22.614 85.986 22.405 Q 85.601 22.196 85.293 21.833 Q 84.985 21.47 84.765 20.964 Q 84.523 20.37 84.457 18.632 Q 84.391 17.29 84.435 15.178 Q 84.435 14.782 84.457 13.858 L 84.281 13.88 Q 83.819 13.924 83.467 13.638 Q 83.115 13.352 83.06 12.901 Q 83.005 12.45 83.291 12.098 Q 83.577 11.746 84.017 11.68 L 84.523 11.636 Q 84.545 10.47 84.589 9.282 Q 84.611 8.82 84.941 8.512 Q 85.271 8.204 85.733 8.226 Q 86.195 8.248 86.503 8.578 Q 86.811 8.908 86.789 9.37 L 86.723 11.46 L 87.449 11.416 Q 87.911 11.394 88.252 11.68 Q 88.593 11.966 88.626 12.428 Q 88.659 12.89 88.373 13.231 Q 88.087 13.572 87.625 13.616 L 86.657 13.66 Q 86.635 14.716 86.635 15.2 Q 86.591 17.268 86.657 18.566 Q 86.701 19.886 86.789 20.084 Q 86.877 20.282 86.921 20.359 Q 86.965 20.436 87.086 20.513 Q 87.207 20.59 87.339 20.612 Q 87.471 20.634 87.834 20.733 Q 88.197 20.832 88.615 20.986 Q 89.033 21.118 89.242 21.525 Q 89.451 21.932 89.308 22.361 Q 89.165 22.79 88.758 22.999 Q 88.351 23.208 87.911 23.054 Z" style="fill: rgb(32, 29, 45); white-space: pre;"/>
  <path d="M 92.175 23.12 Q 91.735 23.12 91.405 22.823 Q 91.075 22.526 91.075 22.02 L 91.031 17.532 Q 91.009 16.014 91.009 13.748 L 91.009 12.45 Q 91.009 11.944 91.317 11.658 Q 91.625 11.372 92.065 11.372 Q 92.527 11.372 92.868 11.669 Q 93.209 11.966 93.209 12.494 L 93.209 13.154 Q 93.451 12.626 94.111 12.252 Q 95.013 11.702 96.091 11.702 Q 96.905 11.702 97.345 11.966 Q 97.785 12.23 97.785 12.912 Q 97.785 13.352 97.521 13.649 Q 97.257 13.946 96.751 13.946 Q 94.903 13.946 94.199 14.452 Q 93.803 14.716 93.506 15.09 Q 93.209 15.464 93.209 15.816 L 93.253 18.566 L 93.275 22.02 Q 93.275 22.526 92.945 22.823 Q 92.615 23.12 92.175 23.12 Z" style="fill: rgb(32, 29, 45); white-space: pre;"/>
  <path d="M 98.968 22.064 Q 98.924 20.414 98.979 17.004 Q 99.034 13.594 99.034 12.538 Q 99.034 12.076 99.353 11.757 Q 99.672 11.438 100.134 11.438 Q 100.596 11.438 100.915 11.757 Q 101.234 12.076 101.234 12.538 Q 101.234 13.594 101.179 16.982 Q 101.124 20.37 101.168 22.02 Q 101.168 22.482 100.86 22.812 Q 100.552 23.142 100.09 23.142 Q 99.628 23.142 99.298 22.834 Q 98.968 22.526 98.968 22.064 Z M 101.014 7.632 Q 101.388 8.006 101.388 8.556 Q 101.388 9.106 101.014 9.48 Q 100.64 9.854 100.09 9.854 Q 99.54 9.854 99.166 9.48 Q 98.792 9.106 98.792 8.556 Q 98.792 8.006 99.166 7.632 Q 99.54 7.258 100.101 7.247 Q 100.662 7.236 101.014 7.632 Z" style="fill: rgb(32, 29, 45); white-space: pre;"/>
  <path d="M 106.303 26.442 Q 106.303 26.904 105.973 27.212 Q 105.643 27.52 105.181 27.52 Q 104.719 27.52 104.411 27.19 Q 104.103 26.86 104.103 26.398 Q 104.191 22.064 104.191 12.56 Q 104.191 12.098 104.51 11.779 Q 104.829 11.46 105.291 11.46 Q 105.621 11.46 105.896 11.757 Q 106.171 12.054 106.303 12.494 L 106.611 12.296 Q 107.931 11.504 109.229 11.438 Q 110.527 11.372 111.561 12.01 Q 112.529 12.56 113.2 13.55 Q 113.871 14.54 114.179 15.706 Q 114.421 16.542 114.443 17.488 Q 114.465 18.434 114.201 19.248 Q 113.937 20.062 113.431 20.854 Q 112.925 21.646 112.012 22.24 Q 111.099 22.834 109.911 23.054 Q 107.865 23.428 106.369 22.35 Q 106.347 24.396 106.303 26.442 Z M 109.515 20.898 Q 111.187 20.59 111.858 19.303 Q 112.529 18.016 112.067 16.278 Q 111.605 14.562 110.461 13.924 Q 109.295 13.242 107.755 14.188 Q 107.051 14.606 106.941 14.738 Q 106.875 14.804 106.831 14.859 Q 106.787 14.914 106.677 15.112 L 106.391 15.508 L 106.391 19.116 Q 106.501 19.226 106.567 19.358 Q 107.183 20.326 107.865 20.7 Q 108.547 21.074 109.515 20.898 Z" style="fill: rgb(32, 29, 45); white-space: pre;"/>
</svg>